# xmcd CD database file
#
# Track frame offsets:
#	150
#	12379
#	30154
#	54099
#	75696
#	94047
#	112676
#	144625
#	178492
#	213491
#
# Disc length: 2991 seconds
#
# Revision: 0
# Processed by: cddbd v1.4PL0 Copyright (c) Steve Scherf et al.
# Submitted via: CDex 1.51
#
DISCID=780bad0a
DTITLE=zinctone - 789/578
DYEAR=2002
DGENRE=Jazz
TTITLE0=citromath
TTITLE1=two hearts
TTITLE2=rumours
TTITLE3=changing constellations
TTITLE4=789/578
TTITLE5=arrival
TTITLE6=far too gentle
TTITLE7=excretion
TTITLE8=at a snail's pace
TTITLE9=stings
EXTD=YEAR: 2002
EXTT0=
EXTT1=
EXTT2=
EXTT3=
EXTT4=
EXTT5=
EXTT6=
EXTT7=
EXTT8=
EXTT9=
PLAYORDER=
